<svg viewBox="0 0 166 20" xmlns="http://www.w3.org/2000/svg"><path d="M156.346.35a3.656 3.656 0 00.214 7.307 3.543 3.543 0 003.547-3.654v-.107A3.665 3.665 0 00156.346.35zm2.013 3.735a1.957 1.957 0 110-.082v.082zM42.715 0c-5.523 0-10 4.477-10 10s4.477 10 10 10 10-4.477 10-10c.036-5.534-4.466-10-10-10zm6.745 10a6.749 6.749 0 11-13.497.006A6.749 6.749 0 0149.46 10zM111.35.266h12.98V3.51l-9.735.044v4.853h8.088v3.246h-8.088v4.846h9.735v3.245h-12.98V.266zM100.772 19.78h-3.288L88.14 5.934v13.845h-3.244V.31h3.288l9.343 13.845V.31h3.244v19.47zM24.912 8.66v11.12H22.47l-.295-2.367a6.103 6.103 0 01-2.758 2.01h-.015a9.875 9.875 0 01-1.697.441c-.202.031-.407.056-.613.077a14.097 14.097 0 01-.996.051h-.082a9.853 9.853 0 01-8.06-4.234c-3.162-4.544-2.08-10.773 2.423-13.93A9.947 9.947 0 0116.093 0a9.837 9.837 0 012 .201c.135.025.263.052.397.087.134.036.232.058.351.094.28.076.555.167.825.272.124.047.243.095.362.147l.313.139c.284.13.558.273.827.428.082.051.169.103.251.156.259.164.512.34.759.52.03.02.062.046.088.066l-1.765 2.781a6.82 6.82 0 00-1.773-1.109c-.109-.04-.222-.088-.335-.13a2.891 2.891 0 00-.362-.118 6.938 6.938 0 00-.907-.206 4.096 4.096 0 00-.506-.057h-.01a5.234 5.234 0 00-.484-.021h-.037a6.75 6.75 0 00.006 13.499 6.74 6.74 0 005.53-2.878v-2.139H16.17l1.944-3.073h6.797zm113.735 11.12v-9.216L132.16.31h3.765l4.412 6.967L144.749.31h3.636l-6.488 10.253v9.217h-3.25zm-63.89-3.244v3.244H59.53L69.568 3.554H60.99V.31h14.282l-10 16.226h9.485z" fill-rule="nonzero"></path></svg>