<?xml version="1.0" encoding="utf-8"?>
<!-- Generator: Adobe Illustrator 19.2.1, SVG Export Plug-In . SVG Version: 6.00 Build 0)  -->
<svg version="1.1" id="layer" xmlns="http://www.w3.org/2000/svg" xmlns:xlink="http://www.w3.org/1999/xlink" x="0px" y="0px"
	 viewBox="0 0 652 652" style="enable-background:new 0 0 652 652;" xml:space="preserve">
<style type="text/css">
	.st0{fill:#D95E16;}
</style>
<g id="ART">
	<g>
		<path class="st0" d="M182.8,428.3c0,0-0.4-0.2-3.1-0.8c-0.5-0.1-1.2-0.4-1.5-1c-0.1-0.1-0.1-0.3-0.2-0.4c-1.5-3-3-6.1-4.6-9
			c-6.4-11.7-13.5-21.5-15.8-24.7c-0.2-0.2-0.1-0.5,0.2-0.6c3.1-1.5,5.9-3.2,8.4-5c2.9-2.1,5.3-4.7,7.2-7.7c1.8-3,2.8-6.4,2.8-10.2
			c0-3.2-0.8-6.3-2.4-9.1s-3.9-5.1-6.7-6.9c-4.2-2.8-10.2-4.2-17.8-4.2h-40.1c-0.7,0-1.2,0.5-1.2,1.2v2.7c0,1.8,0.4,2.7,1.5,2.9
			c0.7,0.1,1.7,0.4,4.7,0.8c0.6,0.1,1.1,0.7,1.1,1.3v68.6c0,0.7-0.5,1.2-1.1,1.3c-2.9,0.5-3.9,0.7-4.7,0.8c-1.1,0.2-1.5,1-1.5,2.9
			v2.7c0,0.7,0.5,1.2,1.2,1.2h24l0,0c0.7,0,1.2-0.6,1.2-1.2v-2.6c0-1.5-0.3-2.6-1.3-2.9c0,0-0.9-0.2-4.9-0.9c-0.6-0.1-1-0.6-1.1-1.2
			l0,0V399c0-0.3,0.2-0.6,0.5-0.7c2.9-0.5,16.3-2.9,16.3-2.9c1.5-0.4,1.6-0.1,2.4,1.1c0.8,1.2,5.4,7.6,9.6,14.7
			c6.4,10.6,8,14.4,8,15.4c0,0.4-0.5,0.7-1,0.8c-2.9,0.5-3.4,0.7-4.1,0.8c-1.1,0.2-1.5,1-1.5,2.9v2.7c0,0.6,0.5,1.1,1.1,1.2H183l0,0
			c0.7,0,1.2-0.6,1.2-1.2v-2.7C184.1,429.7,183.8,428.5,182.8,428.3z M140.7,388.6c-2.2,0.5-6.4,1.2-12.7,2.2
			c-0.4,0.1-0.8-0.2-0.8-0.7v-32.2c0-0.2,0-0.4,0-0.6c0.1-0.4,0.5-0.8,1-0.8h11c15.8,0,23.8,4.2,23.8,13.6c0,3.8-1.3,6.9-3.6,9.5
			C156.2,383.1,150.6,386.6,140.7,388.6z"/>
		<path class="st0" d="M619.5,428.3c0,0-0.4-0.2-3.1-0.8c-0.5-0.1-1.2-0.4-1.5-1c-0.1-0.1-0.1-0.3-0.2-0.4c-1.5-3-3-6.1-4.6-9
			c-6.4-11.7-13.5-21.5-15.8-24.7c-0.2-0.2-0.1-0.5,0.2-0.6c3.1-1.5,5.9-3.2,8.4-5c2.9-2.1,5.3-4.7,7.2-7.7c1.8-3,2.8-6.4,2.8-10.2
			c0-3.2-0.8-6.3-2.4-9.1c-1.6-2.8-3.9-5.1-6.7-6.9c-4.2-2.8-10.2-4.2-17.8-4.2h-40.1c-0.7,0-1.2,0.5-1.2,1.2v2.7
			c0,1.8,0.4,2.7,1.5,2.9c0.7,0.1,1.7,0.4,4.7,0.8c0.6,0.1,1.1,0.7,1.1,1.3v68.6c0,0.7-0.5,1.2-1.1,1.3c-2.9,0.5-3.9,0.7-4.7,0.8
			c-1.1,0.2-1.5,1-1.5,2.9v2.7c0,0.7,0.5,1.2,1.2,1.2h24l0,0c0.7,0,1.2-0.6,1.2-1.2v-2.6c0-1.5-0.3-2.6-1.3-2.9c0,0-0.9-0.2-4.9-0.9
			c-0.6-0.1-1-0.6-1.1-1.2l0,0V399c0-0.3,0.2-0.6,0.5-0.7c2.9-0.5,16.3-2.9,16.3-2.9c1.5-0.4,1.6-0.1,2.4,1.1
			c0.8,1.2,5.4,7.6,9.6,14.7c6.4,10.6,8,14.4,8,15.4c0,0.4-0.5,0.7-1,0.8c-2.9,0.5-3.4,0.7-4.1,0.8c-1.1,0.2-1.5,1-1.5,2.9v2.7
			c0,0.6,0.5,1.1,1.1,1.2h24.3l0,0c0.7,0,1.2-0.6,1.2-1.2v-2.7C620.7,429.7,620.4,428.5,619.5,428.3z M577.4,388.6
			c-2.2,0.5-6.4,1.2-12.7,2.2c-0.4,0.1-0.8-0.2-0.8-0.7v-32.2c0-0.2,0-0.4,0-0.6c0.1-0.4,0.5-0.8,1-0.8h11
			c15.8,0,23.8,4.2,23.8,13.6c0,3.8-1.3,6.9-3.6,9.5C592.9,383.1,587.3,386.6,577.4,388.6z"/>
		<path class="st0" d="M453.4,390.9h-30.6l0,0c-0.7,0-1.2,0.6-1.2,1.2v2.7c0,1.5,0.3,2.6,1.3,2.9s9.9,1.5,11.1,1.8
			c1.3,0.2,1.5,1.2,1.5,1.8c0,0.9,0,17,0,17s-0.1,3.2-4.4,6.6c-1.9,1.5-4.5,2.6-7.8,3.5c-3.2,0.8-6.4,1.2-9.4,1.2
			c-4.9,0-9.5-1-13.9-2.9c-4.4-1.9-8.2-4.6-11.3-8.1c-6-6.7-9-15-9-24.9c0-4.9,0.8-9.8,2.4-14.5c1.5-4.8,3.7-9.1,6.6-12.7
			c2.9-3.8,6.4-6.7,10.6-8.9c4.2-2.2,8.8-3.3,14-3.3c6.2,0,11.8,1.5,16.4,4.4l0.2,0.1c2.9,1.8,5.9,5.3,7.5,9.2
			c0.6,1.6,0.7,2.6,0.8,3.6c0.2,1.1,1,1.5,2.9,1.5h2.7c0.7,0,1.2-0.5,1.2-1.2v-23.3c0-0.7-0.5-1.2-1.2-1.2h-2.7
			c-1.8,0-2.2,0.2-2.5,1.3c-0.2,1.2-0.5,2.2-1,2.8c-0.1,0.1-0.3,0.2-0.4,0.3c-0.2,0.1-0.5,0.1-0.8,0c-2.9-1.3-6.1-2.4-9.8-3.2
			c-4.7-1-9.2-1.5-13.2-1.5c-8.6,0-16.6,2.1-23.7,6.1c-7.1,4-12.9,9.6-17.1,16.7c-4.1,7.2-6.2,15-6.2,23.5c0,6.2,1.2,12.3,3.6,18
			c2.3,5.6,5.9,10.5,10.5,14.6c3,2.5,6.3,4.6,9.8,6.2c3.6,1.6,7.4,2.9,11.2,3.6c3.9,0.8,7.9,1.2,11.8,1.2c7.3,0,15.1-1.6,23.1-4.7
			c8.1-3.4,12-6.4,12-9.5c0-0.6,0-18.7,0-19.3v-3c0-0.5,0-1,0.5-1.3c0.6-0.3,3.8-1.3,3.8-1.3l0,0c0.8-0.4,1.7-1,1.8-2.9v-2.7
			C454.6,391.5,454.1,390.9,453.4,390.9z"/>
		<path class="st0" d="M97.2,363.5L95,349.9c0-0.1-0.1-0.2-0.1-0.2c-0.1-0.4-0.4-0.8-0.7-1c-0.1-0.1-0.4-0.1-0.4-0.1H24.4
			c-0.7,0-1.2,0.7-1.2,1.2l-2.3,13.8c-0.2,0.8,0.2,1.5,1.3,1.5s2.7,0,2.7,0c2.5,0,3.5,0,4-1.3c0,0,1.1-2.8,2.1-4.4l0,0l0,0
			c0.4-0.7,0.9-1.3,1.4-1.7c1.7-1.3,3.4-1.6,7.6-1.6h12.3l0,0h0.1l0,0c0.5,0,1,0.4,1,1l0,0v69c0,1-1,1.3-1.1,1.3
			c-2.9,0.5-4.1,0.7-4.7,0.8c-1.1,0.2-1.5,1-1.5,2.9v2.7c0,0.6,0.5,1.3,1.5,1.3h23.4c0.8,0,1.5-0.7,1.5-1.3v-2.7
			c0-1.8-0.4-2.7-1.5-2.9c-0.7-0.1-1.8-0.4-4.7-0.8c-0.1,0-1.1-0.2-1.1-1.3v-69l0,0c0-0.5,0.4-1,1-1l0,0h0.1l0,0h12
			c4.2,0,5.9,0.4,7.6,1.6c0.5,0.4,0.9,1,1.4,1.7l0,0l0,0c1,1.6,2.1,4.4,2.1,4.4c0.5,1.3,1.5,1.3,4,1.3c0,0,1.6,0,2.7,0
			C97,365,97.4,364,97.2,363.5z"/>
		<path class="st0" d="M531.1,417.5c-1,0-2.7,0-2.7,0c-2.5,0-3.5,0-4,1.3c0,0-1.6,3.9-2.7,5.5l0,0l0,0c-0.4,0.7-0.9,1.3-1.4,1.7
			c-1,0.8-2.9,1.6-6,1.6H485c-0.7,0-1.3-0.6-1.3-1.3v-30.6c0-0.7,0.6-1.3,1.3-1.3c0,0,25.7,0,25.8,0c0.3,0,0.6,0.1,0.7,0.4
			c0,0,1,2.4,1,2.5c0.4,1,1,1.5,2.9,1.5c0,0,0,0,0.1,0h2.7c1,0,1.3-0.5,1.3-1.5V384c0-0.8-0.3-1.5-1.3-1.5h-2.7c0,0,0,0-0.1,0
			c-1.8,0-2.4,0.5-2.9,1.5c-0.1,0.1-1,2.4-1.1,2.4c-0.2,0.2-0.4,0.4-0.7,0.5H485c-0.8,0-1.4-0.6-1.4-1.4v-28.2
			c0-0.7,0.6-1.3,1.3-1.3h24.2c4.2,0,5.3,0.2,7,1.5c0.5,0.4,0.9,1,1.4,1.7l0,0l0,0c1,1.6,2.1,4.4,2.1,4.4c0.5,1.3,1.5,1.3,4,1.3
			c0,0,1.6,0,2.7,0s1.5-1,1.3-1.5l-2.3-13.8c-0.1-0.4-0.4-0.8-0.7-1c-0.1-0.1-0.4-0.1-0.4-0.1c0,0-57.6,0-58.4,0
			c-0.7,0-1.2,0.7-1.2,1.2v2.7c0,1.5,0.3,2.6,1.3,2.9l4.5,0.8c1.2,0.2,1.5,0.5,1.5,1.3c0,0,0,0,0,0.2v68.4c0,0.3-0.1,1-1,1.2
			c-2.9,0.5-4.1,0.8-4.8,0.9c-1.2,0.2-1.6,1.2-1.6,3v2.6c0,0.8,0.8,1.3,1.5,1.3c0,0,63,0,63.1,0c0.5,0,1-0.7,1-1.1l2.3-14.9
			C532.6,418.4,532.2,417.5,531.1,417.5z"/>
		<path class="st0" d="M358,417.5c-1,0-2.7,0-2.7,0c-2.5,0-3.5,0-4,1.3c0,0-1.6,3.9-2.7,5.5l0,0l0,0c-0.4,0.7-0.9,1.3-1.4,1.7
			c-1,0.8-2.9,1.6-6,1.6h-29.4c-0.7,0-1.3-0.6-1.3-1.3v-30.6c0-0.7,0.6-1.3,1.3-1.3c0,0,25.7,0,25.8,0c0.3,0,0.6,0.1,0.7,0.4
			c0,0,1,2.4,1,2.5c0.4,1,1,1.5,2.9,1.5c0,0,0,0,0.1,0h2.7c1,0,1.3-0.5,1.3-1.5V384c0-0.8-0.3-1.5-1.3-1.5h-2.7c0,0,0,0-0.1,0
			c-1.8,0-2.4,0.5-2.9,1.5c-0.1,0.1-1,2.4-1.1,2.4c-0.2,0.2-0.4,0.4-0.7,0.5h-25.7c-0.8,0-1.4-0.6-1.4-1.4v-28.2
			c0-0.7,0.6-1.3,1.3-1.3H336c4.2,0,5.3,0.2,7,1.5c0.5,0.4,0.9,1,1.4,1.7l0,0l0,0c1,1.6,2.1,4.4,2.1,4.4c0.5,1.3,1.5,1.3,4,1.3
			c0,0,1.6,0,2.7,0s1.5-1,1.3-1.5l-2.3-13.8c-0.1-0.4-0.4-0.8-0.7-1c-0.1-0.1-0.4-0.1-0.4-0.1c0,0-57.6,0-58.4,0
			c-0.7,0-1.2,0.7-1.2,1.2v2.7c0,1.5,0.3,2.6,1.3,2.9c0,0,0.5,0.1,4.5,0.8c0.4,0.1,0.9,0.2,1.2,0.5l0.1,0.1l0,0
			c0.1,0.2,0.2,0.4,0.2,0.6c0,0,0,0,0,0.2v68.4c0,0.3-0.1,1-1,1.2c-2.9,0.5-4.1,0.8-4.8,0.9c-1.2,0.2-1.6,1.2-1.6,3v2.6
			c0,0.8,0.8,1.3,1.5,1.3c0,0,63,0,63.1,0c0.5,0,1-0.7,1-1.1l2.3-14.9C359.5,418.4,359.1,417.5,358,417.5z"/>
		<g>
			<path class="st0" d="M280.1,428.1c-0.5-0.1-0.6-0.1-1.6-0.3c-0.5-0.1-1.1-0.2-2.1-0.4c-0.1,0-0.5,0-0.7-0.4
				c-0.2-0.2-3.7-9.6-3.8-10l0,0l0,0c-10.1-26.5-11.6-29.6-30.2-68c-0.8-1.5-2.2-2.4-3.6-2.4c-1.5,0-2.9,0.9-3.6,2.4
				c-0.4,0.7-21.3,49.2-29.3,67.9l-3.2,7.3l-0.7,1.5c0,0-0.3,0.7-0.5,0.9c-0.1,0.1-0.4,0.3-0.7,0.4c-2.9,0.5-4.1,0.7-4.7,0.8
				c-1.1,0.2-1.5,1-1.5,2.9v2.7c0,0.6,0.5,1.3,1.5,1.3h23.4c0.8,0,1.5-0.7,1.5-1.3v-2.7c0-1.8-0.4-2.7-1.5-2.9
				c-0.7-0.1-2.8-0.6-5.7-1.1c-0.2-0.1-0.3-0.1-0.4-0.2c-0.7-0.3-1-1-0.8-1.5c0,0,2.1-5.8,3-7.9c1.1-2.7,2.4-5.6,3.2-7.9
				c0.5-1.2,0.8-2.2,1.2-3c0.3-0.8,1.1-1.3,1.9-1.3h31.4c0.7,0,1.9-0.1,2.2,1c0.1,0.4,2.9,7.6,4.6,12.8c0.4,1.3,0.9,3.2,1.3,4.7
				c0.1,0.5,0.4,1.4,0.5,1.8c0.3,0.9,0.2,1.5-0.3,1.9c-0.1,0.1-0.2,0.1-0.2,0.1c-2.9,0.5-3.2,0.5-3.9,0.7c-1.1,0.2-1.5,1-1.5,2.9
				v2.7c0,0.6,0.5,1.3,1.5,1.3h23.4c1.2,0,1.5-0.7,1.5-1.3v-2.7C281.5,429.2,281.1,428.4,280.1,428.1z M250.1,397.8h-26.5
				c-0.5,0-1-0.5-0.7-1.1l13-31.8c7.6,15.8,11.7,24.3,14.8,31.6c0.1,0.2,0.1,0.3,0.1,0.3C251,397.2,250.7,397.8,250.1,397.8z"/>
		</g>
	</g>
	<path class="st0" d="M239.8,229.5l32,18.3c0.1,0.1,0.2,0.1,0.3,0c1.8-1.2,21.2-15.7,50.5-35.5c0,0,4-2.6,7.5-0.1l52.5,36.7
		c0.2,0.2,0.5,0.2,0.8,0.1l32.7-13.7c1.3-0.5,2.9-0.4,4.1,0.4c7.4,4.6,36.2,22.9,39.4,24.8c2.2,1.3,0.7,3.5-1.2,2.5
		c-3.4-1.8-35.9-19-37.9-20c-2.1-1-2.5-1.1-4.9,0c0,0-20,9.4-22.1,10.4c-2.1,1-0.9,3.4,2.5,1.9c3.4-1.5,17.2-7,19.8-8.1
		c2.6-1.1,4.7,0.2,3,2.7c-1.8,2.5-4,5.5-5.8,7.9c-1.8,2.5,0.5,2.9,3.9,2.7c3.4-0.2,3,3.3-0.7,4.2c-3.8,0.9-4.7,1.2-4.7,3.7
		c0,2.5,5.6,5.9,12.7,8.8c7.1,2.9,49.6,20.5,49.6,20.5c3.8,1.3,2.2,4.6-0.4,3.8c-2.4-0.7-56.9-18.6-66-24.5
		c-9.1-5.9-28.2-19.7-78.8-52.8c0,0-2.5-1.6-4.9-0.2l-43,27.9c0,0-9,6.2-11.1,7.6c-1.7,1.2-0.2,3.8,4.9,0.7l46.2-27
		c0,0,4.8-2.6,4.1,2.4c0,0-1.4,12-1.8,15.2c-0.4,3.2-1.8,9.2,3.5,8.9c0,0,6.6-0.7,3.2,4.6c-0.2,0.3-29.1,41.1-30,41.8
		c-1.7,1.3-4.1,0.3-3.5-3c0,0,5.3-20.8,5.4-21.4c0.7-3.2-1.8-4.4-4.3-1.9c-2.6,2.5-20.4,19.6-22.5,21.6c-2.1,2.1-4.7,0.2-3.5-2.2
		c1.2-2.5,11.5-22,12.8-24.6c1.4-2.6-1.3-4.5-3.8-2.1c-2.5,2.4-25.6,22.6-25.6,22.6c-8.9,7.3-32.1,5.5-65,27.3l0,0
		c-4.7,2.9-6.2-1.2-3.7-3.3c2.5-2,9.3-8,11.6-10.1c1.9-1.8,1.6-4.8-3.3-3.6c-4.9,1.2-32.5,7.6-32.5,7.6s-11,3-11.8,0.4
		c-0.6-2.1,3.2-3.4,3.2-3.4s53.8-16,110.6-56.1c0.2-0.1,0.1-0.4,0-0.4l-22.8-14l0,0c-0.1-0.1-1.9-1-3.8,0c0,0-28.7,15.9-30.5,16.8
		c-1.7,1-0.7,2.9,2.7,1.3c2.3-1.2,15.9-7.9,20-9.9c4.6-2.3,8.5-0.7,5.9,2.9c-2.4,3.1-16.1,21.5-18.1,24.1c-1.9,2.5-6.2,2.5-4.6-2.3
		s0.8-2.8,1.3-4.4c0.5-1.6-0.7-3.1-2.7-0.8c-2.1,2.3-8.4,9.2-12.3,13.5c-3.5,3.8-4.9,1.6-4.2-0.4c0.9-2.4,1.2-3,1.6-4.2
		c0.5-1.7-1.2-2.2-2.1-1c-1,1.2-13.8,16.8-15.6,19.2c-1.8,2.4-4.9,1.2-1.9-4.6c3.2-6.1-9-2.6-12.9-1.7c-3.9,0.8-52.6,16-60.9,17.7
		c-2.9,0.9-4.1-2.2-0.8-3.6c3.3-1.3,18-6.4,20.5-7.3c2.5-0.9,1.9-2.5-1.1-2.2c-2.3,0.3-36.4,2.9-42.2,3.3c-2.4,0.2-3-2.4,0.3-2.8
		c4.4-0.5,54.2-8.3,76.3-20.3c17.8-9.6,80.6-43.6,80.6-43.6S238.4,228.6,239.8,229.5z M533.4,290.5c-0.8-0.4-6.5-3.4-9.2-7.8
		c0,0,3.8,1.8,6.4,2.5c3,0.9,4.1-2.7,1.9-3.5c-1.6-0.6-8.5-4.5-8.9-7.3c0,0,3.8,3,6.1,3.3c1.6,0.2,2.9-2.2,0.5-3.3
		c-1.4-0.7-5.6-3.3-6.7-6.1c0,0,3.3,1.5,4.4,1.3c1.5-0.2,2-2.6-0.4-3.4c-2.4-0.8-3.7-2.5-4.2-3.4c-0.1-0.1-0.2-0.5-0.2-0.7
		c0,0,0.6,0.5,2.7,1.3c2.1,0.7,2.2-1.9,1-2.7c-1.2-0.8-4.7-2.9-5.3-3.8c0.1,0,4,2.4,4.6,1.1c0.6-1.3-1.1-2.2-2.4-3
		c-1.8-1.2-2.7-3.3-2.5-3.3c0.5,0.2,3,2.1,3.5,0.4c0.1-0.6-0.2-1-0.7-1.3c-1.2-0.6-1.8-1.3-2.6-3.1c-0.8-1.8-0.5-3.9-1.6-5.2
		c-0.4-0.4-1.7-0.6-2.1,1.2c-0.4,1.8-0.5,3.6-1.8,4.7s-3.3,1.9-2.5,3.3c0.5,0.8,2.3-0.1,3-0.6c0.1-0.1,0.1,1.3-1,2.2
		c-1.1,1.1-4,1.8-4.1,3.3c-0.1,1.5,2.1,1.3,4.6,0.2c-0.4,1.4-4.4,3.6-5.4,4c-2,1-0.6,3.1,0.9,2.9c1.5-0.2,3.8-1.6,3.9-1.6
		c0.2,0.1-0.2,0.7-0.3,0.7c-0.5,0.7-1.2,1.3-1.8,1.9c-0.8,0.8-1.7,1.8-2.9,2.2c-0.6,0.2-1.3,0.5-1.7,1c-0.2,0.4-0.3,0.8-0.2,1.2
		c0.2,0.7,0.9,1.3,1.7,1.4c1.1,0.2,2.2-0.2,3.2-0.6c0.5-0.2,1.3-0.9,1.9-1c-0.4,1.3-1.1,2.4-2,3.4c-1.2,1.3-2.5,2.1-4,2.8
		c-0.8,0.4-1.6,0.9-1.9,1.8c-0.1,0.2-0.1,0.5-0.1,0.8c0.1,0.5,0.5,0.8,0.9,1.1c0.7,0.3,1.7,0.4,2.5,0.2c0.4-0.1,4.6-1.5,4.5-2
		c0.1,0.5-0.6,1.2-0.8,1.5c-0.7,0.8-1.4,1.5-2.2,2.2c-0.9,0.8-1.9,1.5-2.9,2.2c-1,0.7-2.1,1-3.1,1.6c-0.4,0.2-0.8,0.7-1,1.2
		c-0.2,0.5-0.1,1.1,0.2,1.5c0.2,0.2,0.5,0.4,0.8,0.4c1.8,0.5,4.4-0.7,6-1.5c0.4-0.2,2.3-1.3,2.3-1.3c-0.2,0.5-1.2,3-5.5,4.5
		c-1.5,0.5-3.1,0.9-4.5,1.5c-0.4,0.1-0.8,0.4-1.1,0.7s-0.5,0.7-0.4,1.2c0.1,0.5,0.5,0.8,0.9,1c0.5,0.2,1.2,0.3,1.8,0.3
		c4.4,0,9.2-2.5,9.2-2.5c-0.2,0.1-0.5,0.4-0.7,0.6c-1.6,1.4-3.3,2.6-5.3,3.5c-1.3,0.6-2.9,0.7-4,1.5c-0.7,0.4-1,1.4-0.5,2.1
		c0.6,1,2.1,1,3.1,0.8c1-0.1,2-0.5,3-0.8c1.5-0.5,3-1,4.5-1.6l-0.1,0.1c-0.7,0.7-1.3,1.4-2,2.1c-1,0.9-2,1.6-3.2,2.2
		c-1,0.5-0.7,1.8,0.2,2.2c0.5,0.3,1.2,0.3,1.8,0.2c1.8-0.3,3.4-1.3,4.9-2.2c0.1-0.1,0.8-0.4,0.8-0.5c0.3,3.9-1.1,10.3-1.8,10.2
		c-1.5-0.4-2.8-0.8-4-1.2c-10.6-3.5-17.3-6.4-17.3-6.4c-2.4-0.8-3.9,2.8-1,3.8c-0.1-0.1,7.2,2.6,18,5.8c6.1,1.8,17.4,4.7,17.9,4.8
		c2.5,0.5,3.2-1.7,1-2.4c-0.2-0.1-3.4-1-7.2-2.1c-0.5-0.1-1.3-3.3-1.2-12.1c0,0.2,0.7,0.7,0.8,0.7c0.7,0.5,1.3,1,2.1,1.5
		c1.2,0.7,2.8,1.4,4.1,0.7c0.7-0.4,1.3-1.5,0.5-2.1c-0.8-0.7-5-2.4-6.1-5.9c-0.1-0.1,3.6,3.4,8.2,4.2c2.1,0.5,3-1.9,1.6-3.1
		c-1.3-1.2-7.4-3.8-8.8-7.6c0.1,0,3.9,2.8,7.7,3.3c0.5,0.1,1.5,0.2,2-0.7C534.5,292.2,534.5,291,533.4,290.5z M503.6,273.8
		c-1.1-1.6-11.8-5.6-13-9.5c0.1,0,2.9,2.3,8.6,3.8c4.4,1.2,5.2-3.3,2.4-4.2c-8.3-2.7-11.8-10-11.9-10.2c0,0,5.9,4.6,8.9,5
		c1.6,0.2,2.8,0.2,3.6-0.7c1.8-2.9-2.4-4-5.3-5.7c-4.6-2.7-7.6-7.1-7.9-8.1c0.4,0.1,6.6,4.4,10.1,3.5c2.1-0.8,1.6-2.9,0.7-3.5
		c-1-0.6-5.5-2.5-8.3-5.4c-2.9-2.9-3.5-4.1-3.5-4.3c0.3-0.1,4.1,2,6.3,2.4c2.2,0.4,3.7-2.4,1.5-3.5c-1.4-0.5-7.8-4.2-8.3-6.1
		c3.5,1.5,7.6,2.6,7.5,0.1c-0.1-1.9-4.4-3-5.9-4.4c-1.5-1.3-2.3-3.1-2.2-3c1,0.7,3.9,1.8,4.8,0.6c1.3-1.8-1.5-2.8-3.2-4.2
		s-2.4-5.7-3-8.1c-0.7-2.4-2.6-1.7-2.7-0.9c-0.1,0.1-0.4,5.4-1.6,7.8c-1.2,2.4-3.3,3.6-5,4.4c-0.8,0.4-1.2,0.9-1.1,1.7
		c0.2,1.5,2.2,1,3.2,0.7c1-0.4,1.3-0.5,2.2-1c0.7-0.3-1.2,3.2-3.8,4.4c-1.8,0.8-3.6,1.7-3,3.5c0.7,1.9,5.8-0.2,5.9-0.2
		c-0.9,1.2-6.6,4.8-8.3,5.9c-1.5,0.7-1.2,3.6,2.3,2.9c2.5-0.4,5.3-2.1,5.3-2.1c1-0.4-4,4.7-9.4,7.5c-1.5,0.9-1.3,1.9-1.1,2.5
		c0.4,0.9,1.5,1.4,3,1c2.2-0.6,6.6-2.5,7.5-3.2c-0.3,1.9-9.7,7.9-11.6,9c-1.2,0.8-1.5,1.9-1,2.8c0.4,0.9,1.8,1.5,4.6,0.1
		c0.7-0.3,6.4-3.2,6.4-3.2c-0.9,1.9-6.4,7-13,11.4c-0.8,0.7-1.3,1.6-1,2.5c0.4,1.2,1.3,1.8,3.6,1c2.1-0.6,8.1-3.8,8.1-3.8
		c-3.9,5.8-11.3,10.9-12.4,11.6c-1.3,1-1.6,2.2-0.8,3.3c0.7,1.1,2.2,1,3,0.9c5.4-0.7,11.4-6.1,11.5-6.1c-0.7,1.6-3.5,6.1-11.5,10.7
		c-1.6,1-1.2,2.4-0.8,2.9c0.5,0.8,1.6,0.8,2.2,0.8c6-0.5,10.4-3.9,10.3-3.7c-0.9,2.7-5.3,6.1-6.5,7.2c-1.2,1.1-0.1,3.6,3.6,3
		c2.5-0.2,6.4-3.9,6.4-3.9s-0.2,9.6-0.2,10.7c0,1.7-0.2,4.7-0.6,6.6c-0.4,1.8-3,4.2-3,4.2c-1.8,1.4,0.2,1.5,2.1,0.8
		c3.3-1,4.7,1.5,7,1.4c2.9,0.2,0.9-1.6,2.8-1.3c3,1.3,4.6,1.4,6.7,0.5c3-1.2-6.6-0.1-6.9-7.8c-0.1-1.3-0.5-8.3-0.6-13.1
		c0.7,0.8,2.1,2.3,4.4,3.1c3.2,1,4.8,0.5,5.2-0.5c0.3-1-0.1-2.2-1.2-2.8c-2.2-1.2-4.1-2.5-5.7-6.5c-0.1-0.5,1.3,1.4,6.4,3.7
		s5.3-0.8,5.3-1.2c-0.1-1.6-2.9-1.9-5-3.5c-3.5-2.5-3.5-3.6-3.5-3.6s5.3,3,7.6,2c1.3-0.6,1.8-2.5-1-3.6c-2.4-0.9-6.7-3.2-7.3-4.6
		c3.3,1.1,7.5,3.1,9.7,3C504.4,277.2,504.8,275.6,503.6,273.8z"/>
</g>
</svg>
